<svg width="131" height="22" viewBox="0 0 131 22" fill="none" xmlns="http://www.w3.org/2000/svg">
<path d="M129.089 16.6793C129.732 16.6793 130.474 16.1514 130.743 15.4865C131.012 14.8215 130.766 14.2936 130.054 14.2936C129.412 14.2936 128.647 14.8215 128.378 15.4865C128.109 16.1514 128.447 16.6793 129.089 16.6793ZM120.331 6.53821L120.25 16.335L119.184 17.6658C117.947 19.2487 116.905 20.1209 115.574 20.1209C115.115 20.1209 114.752 19.9373 114.473 19.6624L113.43 20.9932C113.677 21.1767 114.181 21.2918 114.664 21.2918C116.432 21.2918 117.943 20.0533 119.715 17.8274L128.71 6.53909C129.407 5.66684 129.941 5.36906 130.717 5.32339L130.847 5.00189H127.495L127.365 5.32339C128.334 5.36906 128.65 5.78191 128.045 6.53909L121.57 14.6608L121.694 6.51538C121.716 5.78103 122.365 5.36819 123.417 5.32251L123.547 5.00101H119.437L119.307 5.32251C120.023 5.36819 120.339 5.66684 120.331 6.53821ZM110.315 14.7293L112.903 8.32839C114.301 6.74552 115.719 5.9655 116.844 5.9655C117.211 5.9655 117.537 6.01117 117.784 6.19476L118.414 4.86398C118.171 4.72608 117.878 4.65756 117.579 4.65756C116.362 4.65756 114.805 5.66684 113.153 7.70912L114.387 4.65756H114.065L111.017 5.43758L110.887 5.75907H111.507C112.347 5.78191 112.539 6.10341 112.205 6.9291L109.051 14.7302C108.633 15.7623 107.678 15.9687 106.772 16.1066L106.642 16.4281H111.992L112.122 16.1066C110.686 15.9687 109.897 15.7623 110.314 14.7302M107.231 2.9359H106.909L103.763 5.32163L103.633 5.64312H104.873L101.561 13.8342C100.801 15.7157 101.315 16.7707 102.831 16.7707C104.208 16.7707 105.259 15.8756 105.697 15.302L105.573 15.2106C105.177 15.5093 104.662 15.8756 103.789 15.8756C102.618 15.8756 102.304 15.1184 102.833 13.8105L106.136 5.64225H109.603L109.862 5.00014H106.395L107.23 2.93502L107.231 2.9359ZM93.6786 16.7487C95.9976 16.7487 98.1575 15.3266 98.946 13.2615C100.432 9.24632 93.4105 10.3707 94.6439 7.31911C95.1265 6.12624 96.4249 5.29967 97.9404 5.29967C99.157 5.29967 99.8972 6.19476 99.7917 7.47898L101.287 6.90538C101.329 5.55177 100.106 4.65668 98.27 4.65668C96.0196 4.65668 94.04 5.91894 93.3253 7.7996C91.8353 11.654 98.9029 10.4155 97.5668 13.8333C97.0428 15.1869 95.5695 16.1049 93.9846 16.1049C92.5842 16.1049 91.7386 15.0727 92.0805 13.489L90.4613 14.0854C90.4411 15.6683 91.7957 16.747 93.6786 16.747M90.7795 1.26167C90.5378 1.8581 90.8489 2.34034 91.4915 2.34034C92.1341 2.34034 92.7653 1.8581 93.0071 1.26167C93.2576 0.642397 92.993 0.160156 92.3732 0.160156C91.7535 0.160156 91.0309 0.642397 90.7804 1.26167M83.6292 16.1057L83.4991 16.4272H88.0913L88.2214 16.1057C87.4505 15.9678 86.6655 15.8071 87.0927 14.7521L91.1839 4.63384H90.8621L87.8144 5.41386L87.6843 5.73536H88.304C89.1444 5.7582 89.3264 6.10253 89.002 6.90538L85.8295 14.7521C85.4031 15.808 84.488 15.9678 83.6292 16.1057ZM84.0406 2.9359H83.7188L80.5727 5.32163L80.4426 5.64312H81.682L78.3706 13.8342C77.6102 15.7157 78.1245 16.7707 79.64 16.7707C81.0175 16.7707 82.068 15.8756 82.5066 15.302L82.3827 15.2106C81.9862 15.5093 81.4711 15.8756 80.5982 15.8756C79.4272 15.8756 79.1134 15.1184 79.6417 13.8105L82.9444 5.64225H86.4114L86.6707 5.00014H83.2037L84.0388 2.93502L84.0406 2.9359ZM71.1675 14.7293L73.7555 8.32839C75.1532 6.74552 76.5712 5.9655 77.6964 5.9655C78.0638 5.9655 78.3891 6.01117 78.637 6.19476L79.2673 4.86398C79.0246 4.72608 78.731 4.65756 78.4321 4.65756C77.2155 4.65756 75.6587 5.66684 74.0069 7.70912L75.2411 4.65756H74.9194L71.8717 5.43758L71.7416 5.75907H72.3613C73.2017 5.78191 73.3933 6.10341 73.0593 6.9291L69.9052 14.7302C69.4876 15.7623 68.5321 15.9687 67.6267 16.1066L67.4966 16.4281H72.8466L72.9767 16.1066C71.5403 15.9687 70.7509 15.7623 71.1684 14.7302M57.6414 10.6456L63.9038 2.93678L63.9548 10.6456H57.6405H57.6414ZM65.5758 14.2479L65.4053 0.757468H65.0378L54.0266 14.2479C52.8548 15.6701 52.2465 16.0372 51.0246 16.1066L50.8945 16.4281H55.0736L55.2037 16.1066C53.624 16.0381 53.5432 15.6709 54.715 14.2479L57.1289 11.2886H63.9715L63.9917 14.2479C64.0366 15.6701 63.6357 16.0372 62.0006 16.1066L61.8705 16.4281H66.9911L67.1212 16.1066C65.909 16.0381 65.5987 15.6709 65.5767 14.2479" fill="white"/>
<path d="M0.152344 0.970703H5.5797C8.58346 0.970703 10.3636 2.36384 10.3636 4.87255C10.3636 6.35178 9.5056 7.53059 8.1325 8.08837C9.91349 8.68832 10.8998 9.99626 10.8998 11.9472C10.8998 14.8837 9.14079 16.4279 5.94451 16.4279H0.152344V0.970703ZM8.73378 4.95864C8.73378 3.32921 7.55408 2.36472 5.60167 2.36472H1.73994V7.50951H5.5797C7.57518 7.50951 8.7329 6.63023 8.7329 4.95864H8.73378ZM9.24892 11.9472C9.24892 9.99626 7.98306 8.90353 5.60167 8.90353H1.73994V15.0348H5.60167C7.98306 15.0348 9.24892 13.9201 9.24892 11.9481V11.9472Z" fill="white"/>
<path d="M12.6816 5.30124H14.1189V7.27325C14.7413 6.0514 15.8568 5.08691 17.3794 5.08691C17.5939 5.08691 17.8084 5.08691 18.0017 5.12996V6.54506C15.6423 6.13748 14.4407 8.19557 14.1189 9.61067V16.4279H12.6816V5.30124Z" fill="white"/>
<path d="M18.623 13.4686C18.623 11.5818 20.0392 10.446 22.3345 10.0815L26.2173 9.48155V9.09593C26.2173 7.20913 25.0156 6.35181 23.428 6.35181C21.5829 6.35181 20.6176 7.31629 20.2748 8.70943L18.8375 8.23773C19.3527 6.56526 20.811 5.08691 23.4289 5.08691C25.8534 5.08691 27.6554 6.43701 27.6554 8.98876V16.427H26.2182V14.3479C25.4455 15.806 23.9871 16.6414 22.3784 16.6414C20.1904 16.6414 18.6239 15.3984 18.6239 13.4686H18.623ZM22.527 15.3984C24.6077 15.3984 25.8305 13.8762 26.2173 12.397V10.7034L22.527 11.3033C21.0466 11.5388 20.1456 12.1826 20.1456 13.4256C20.1456 14.6685 21.1328 15.3976 22.527 15.3976V15.3984Z" fill="white"/>
<path d="M29.3965 5.30124H30.8338V7.18805C31.5414 6.1164 32.8714 5.08691 34.5663 5.08691C37.0338 5.08691 38.6856 6.56614 38.6856 8.9668V16.427H37.2272V9.26722C37.2272 7.48758 36.1328 6.41593 34.3738 6.41593C32.6147 6.41593 31.2847 7.80907 30.8338 9.48155V16.427H29.3965V5.30124Z" fill="white"/>
<path d="M40.3828 10.8531C40.3828 7.50899 42.6139 5.08637 45.6177 5.08637C47.1841 5.08637 48.7709 5.9226 49.4574 7.16554V0.755859H50.8947V16.4265H49.4574V14.5186C48.7709 15.7835 47.1833 16.6408 45.6177 16.6408C42.6139 16.6408 40.3828 14.1971 40.3828 10.8531ZM49.4574 11.6032V10.1029C49.3071 7.93765 47.8056 6.41626 45.746 6.41626C43.4938 6.41626 41.9062 8.17394 41.9062 10.8539C41.9062 13.5339 43.4938 15.3127 45.746 15.3127C47.8056 15.3127 49.3071 13.7474 49.4574 11.6041V11.6032Z" fill="white"/>
</svg>
