<svg width="132" height="24" viewBox="0 0 132 24" fill="none" xmlns="http://www.w3.org/2000/svg">
<g clip-path="url(#clip0_689_265)">
<path d="M129.637 18.7158C128.334 18.7158 127.273 19.8021 127.273 21.1371C127.273 22.4722 128.334 23.5585 129.637 23.5585C130.941 23.5585 132.001 22.4722 132.001 21.1371C132.001 19.8021 130.941 18.7158 129.637 18.7158ZM129.637 23.177C128.538 23.177 127.646 22.2628 127.646 21.1371C127.646 20.0114 128.538 19.0972 129.637 19.0972C130.736 19.0972 131.629 20.0114 131.629 21.1371C131.629 22.2628 130.736 23.177 129.637 23.177Z" fill="white"/>
<path d="M129.667 20.4488C129.932 20.4488 130.159 20.6002 130.238 20.8199H130.572C130.483 20.4426 130.118 20.142 129.667 20.142C129.108 20.142 128.688 20.5753 128.688 21.1371C128.688 21.6989 129.108 22.1322 129.667 22.1322C130.118 22.1322 130.483 21.8316 130.572 21.4543H130.238C130.159 21.674 129.93 21.8254 129.667 21.8254C129.276 21.8254 129.001 21.5248 129.001 21.1371C129.001 20.7494 129.276 20.4488 129.667 20.4488Z" fill="white"/>
<path d="M2.46922 10.5188V2.91057H15.4387V0.692383H0V23.3096H2.46922V12.737H13.2488V11.0619V10.5188H2.46922Z" fill="white"/>
<path d="M49.3565 0.692383H47.0391V23.3096H49.3565V0.692383Z" fill="white"/>
<path d="M58.6745 6.383C56.3571 6.383 54.4485 7.30966 53.1552 9.06556C52.0218 10.6017 51.3984 12.737 51.3984 15.0795C51.3984 20.4426 54.1854 23.7761 58.6745 23.7761C62.5099 23.7761 64.8091 21.8419 65.7017 17.8637L65.7584 17.6108H63.4349L63.3964 17.7663C62.7589 20.3493 61.1255 21.7134 58.6745 21.7134C56.2235 21.7134 53.8393 19.887 53.7199 15.8155H65.7685V15.1417C65.7685 9.82223 62.9835 6.383 58.6745 6.383ZM53.7462 13.7528C54.2198 10.4732 56.0819 8.44571 58.6442 8.44571C61.6113 8.44571 63.2811 11.0806 63.4409 13.7528H53.7442H53.7462Z" fill="white"/>
<path d="M37.656 6.38298C35.3427 6.38298 33.4786 7.1666 32.333 8.60739V0.692383H30.0156V23.3096H32.1813V21.8875C33.2944 23.0008 35.4864 23.7761 37.6257 23.7761C42.0278 23.7761 44.8714 20.3617 44.8714 15.0795C44.8714 9.79733 42.0399 6.38298 37.656 6.38298ZM37.6257 21.7134C33.7235 21.7134 32.333 18.27 32.333 15.0484C32.333 10.9748 34.3489 8.44569 37.5953 8.44569C41.2546 8.44569 42.554 12.0197 42.554 15.0795C42.554 19.9761 39.8986 21.7134 37.6257 21.7134Z" fill="white"/>
<path d="M118.916 5.93933C115.252 5.93933 111.336 8.28191 111.336 14.8536C111.336 21.4252 115.25 23.7678 118.916 23.7678C122.581 23.7678 126.526 21.4252 126.526 14.8536C126.526 8.28191 122.595 5.93933 118.916 5.93933ZM118.916 21.5807C115.629 21.5807 113.744 19.1282 113.744 14.8536C113.744 10.5789 115.629 8.12643 118.916 8.12643C122.203 8.12643 124.117 10.5789 124.117 14.8536C124.117 19.1282 122.221 21.5807 118.916 21.5807Z" fill="white"/>
<path d="M106.914 15.9233C106.347 18.552 104.222 21.361 99.9595 21.361C95.436 21.361 92.5114 17.6336 92.5114 11.8663C92.5114 6.09899 95.434 2.40269 99.9595 2.40269C103.459 2.40269 106.031 4.45918 106.837 7.90256L106.873 8.06219H109.407L109.357 7.81135C108.349 2.91889 104.86 -0.0020752 100.022 -0.0020752C93.8108 -0.0020752 89.9531 4.54625 89.9531 11.8663C89.9531 19.1863 93.7764 23.7657 99.9312 23.7657C104.839 23.7657 108.276 21.0231 109.385 16.2343L109.567 15.3988H107.021L106.916 15.9233H106.914Z" fill="white"/>
<path d="M27.8382 11.7523C27.8382 8.18864 25.8406 6.383 21.8979 6.383C18.4269 6.383 16.2349 7.81342 15.5448 10.5188H17.9209C18.4512 9.16092 19.7242 8.44571 21.6247 8.44571C24.3186 8.44571 25.5208 9.39932 25.5208 11.5346C25.5208 11.9844 25.118 12.3452 24.2558 12.6769C23.6891 12.8925 23.341 13.0085 22.3857 13.3009C20.9791 13.73 19.9367 13.9974 19.1008 14.213C17.7225 14.5696 16.9636 14.7644 16.2876 15.2537C15.1906 16.0705 14.6562 17.2542 14.6562 18.8733C14.6562 21.759 16.8988 23.7761 20.1108 23.7761C22.406 23.7761 23.9037 23.0402 25.4722 21.8378V23.3117H27.8423V20.283V18.9064V11.7543L27.8382 11.7523ZM25.5208 16.9142C25.5208 19.6942 23.3086 21.7134 20.2585 21.7134C18.6536 21.7134 16.7774 20.936 16.7774 18.7489C16.7774 16.7795 18.3075 16.3814 19.787 15.9979L19.9145 15.9648C20.2768 15.8694 20.7929 15.7429 21.3393 15.6123C22.1914 15.4071 23.1548 15.1728 23.7195 15.0028C24.5959 14.7396 24.9743 14.5758 25.5188 14.3332V16.9142H25.5208Z" fill="white"/>
<path d="M83.4122 16.8956L87.8507 9.71859V6.45349H85.7256V9.0863L82.1169 14.9199L74.2397 2.90024H83.1835V0.723511H71.6288V2.81939L75.7698 9.1402H75.0351C71.0358 9.1402 67.7812 12.4737 67.7812 16.5701C67.7812 20.6665 71.0358 24 75.0351 24C77.4051 24 79.6112 22.8184 80.9713 20.8365L80.9896 20.8095C81.0138 20.7743 81.0401 20.7411 81.0624 20.7038L81.0563 20.6997L82.1675 18.9044L85.0982 23.3781H89.9556V21.2014H86.2316L83.4102 16.8956H83.4122ZM79.2186 19.6092C78.2552 20.9982 76.7028 21.8253 75.0371 21.8253C72.2097 21.8253 69.9084 19.4683 69.9084 16.5722C69.9084 13.6761 72.2097 11.319 75.0371 11.319H77.1987L80.8762 16.9308L79.2186 19.6092Z" fill="white"/>
</g>
<defs>
<clipPath id="clip0_689_265">
<rect width="132" height="24" fill="white"/>
</clipPath>
</defs>
</svg>
